<mxfile host="app.diagrams.net" modified="2023-12-19T06:31:50.431Z" agent="Mozilla/5.0 (Macintosh; Intel Mac OS X 10_15_7) AppleWebKit/537.36 (KHTML, like Gecko) Chrome/119.0.0.0 Safari/537.36" version="22.1.11" etag="CpARV9eA9ObVr7FuGOnt" type="github">
  <diagram name="第 1 页" id="v7rus-ETG1JhPof1lh1V">
    <mxGraphModel>
      <root>
        <mxCell id="0" />
        <mxCell id="1" parent="0" />
      </root>
    </mxGraphModel>
  </diagram>
</mxfile>
